<?xml version="1.0" encoding="utf-8"?>
<!-- Generator: Adobe Illustrator 27.2.0, SVG Export Plug-In . SVG Version: 6.00 Build 0)  -->
<svg version="1.1" id="Слой_1" xmlns="http://www.w3.org/2000/svg" xmlns:xlink="http://www.w3.org/1999/xlink" x="0px" y="0px"
	 viewBox="0 0 595.3 841.9" style="enable-background:new 0 0 595.3 841.9;" xml:space="preserve">
<style type="text/css">
	.st0{fill:#FFFFFF;}
	.st1{fill:url(#SVGID_1_);}
	.st2{fill:url(#SVGID_00000058549601454320792020000001391948756950967220_);}
	.st3{fill:url(#SVGID_00000063625502733429129460000011659778161245963673_);}
	.st4{fill:url(#SVGID_00000047020877876044740130000008761896717876724367_);}
	.st5{fill:url(#SVGID_00000048466521982136186420000006762457482103794859_);}
	.st6{fill:#2A2A5D;}
	.st7{fill:#2A2B5E;}
</style>
<rect class="st0" width="595.3" height="841.9"/>
<g>
	<g>
		<linearGradient id="SVGID_1_" gradientUnits="userSpaceOnUse" x1="110.2694" y1="410.6339" x2="485.0134" y2="410.6339">
			<stop  offset="0" style="stop-color:#6BB43D"/>
			<stop  offset="0.2039" style="stop-color:#50B38C"/>
			<stop  offset="0.3575" style="stop-color:#12A3D5"/>
			<stop  offset="0.7123" style="stop-color:#125BA2"/>
			<stop  offset="1" style="stop-color:#283065"/>
		</linearGradient>
		<path class="st1" d="M485,372.5v175.4H384.8V273.4h1.2C440.7,273.4,485,317.7,485,372.5z"/>
		
			<linearGradient id="SVGID_00000140702673670763335520000013021795390387887530_" gradientUnits="userSpaceOnUse" x1="110.2621" y1="479.2574" x2="485.0096" y2="479.2574">
			<stop  offset="0" style="stop-color:#6BB43D"/>
			<stop  offset="0.2039" style="stop-color:#50B38C"/>
			<stop  offset="0.3575" style="stop-color:#12A3D5"/>
			<stop  offset="0.7123" style="stop-color:#125BA2"/>
			<stop  offset="1" style="stop-color:#283065"/>
		</linearGradient>
		<path style="fill:url(#SVGID_00000140702673670763335520000013021795390387887530_);" d="M247.5,410.6L247.5,410.6l0,137.3h100.2
			v-37C347.8,455.5,302.9,410.6,247.5,410.6z"/>
		
			<linearGradient id="SVGID_00000106110839255337078900000016478913911736999077_" gradientUnits="userSpaceOnUse" x1="110.2676" y1="223.261" x2="485.0142" y2="223.261">
			<stop  offset="0" style="stop-color:#6BB43D"/>
			<stop  offset="0.2039" style="stop-color:#50B38C"/>
			<stop  offset="0.3575" style="stop-color:#12A3D5"/>
			<stop  offset="0.7123" style="stop-color:#125BA2"/>
			<stop  offset="1" style="stop-color:#283065"/>
		</linearGradient>
		<path style="fill:url(#SVGID_00000106110839255337078900000016478913911736999077_);" d="M384.8,272.2v1.2H110.3V173.1h175.4
			C340.4,173.1,384.8,217.5,384.8,272.2z"/>
		
			<linearGradient id="SVGID_00000033345688008554079450000004045265136416674475_" gradientUnits="userSpaceOnUse" x1="110.2621" y1="360.5096" x2="485.0096" y2="360.5096">
			<stop  offset="0" style="stop-color:#6BB43D"/>
			<stop  offset="0.2039" style="stop-color:#50B38C"/>
			<stop  offset="0.3575" style="stop-color:#12A3D5"/>
			<stop  offset="0.7123" style="stop-color:#125BA2"/>
			<stop  offset="1" style="stop-color:#283065"/>
		</linearGradient>
		<path style="fill:url(#SVGID_00000033345688008554079450000004045265136416674475_);" d="M247.5,410.6
			c0-55.4-44.9-100.2-100.2-100.2h-37v100.2L247.5,410.6L247.5,410.6z"/>
		
			<linearGradient id="SVGID_00000065774298760861473020000010438497861676816788_" gradientUnits="userSpaceOnUse" x1="110.2638" y1="498.9273" x2="485.0114" y2="498.9273">
			<stop  offset="0" style="stop-color:#6BB43D"/>
			<stop  offset="0.2039" style="stop-color:#50B38C"/>
			<stop  offset="0.3575" style="stop-color:#12A3D5"/>
			<stop  offset="0.7123" style="stop-color:#125BA2"/>
			<stop  offset="1" style="stop-color:#283065"/>
		</linearGradient>
		<path style="fill:url(#SVGID_00000065774298760861473020000010438497861676816788_);" d="M208.2,530.3V450h-78.9
			c-10.5,0-19,8.5-19,19v78.9h80.4C200.3,547.9,208.2,540,208.2,530.3z"/>
	</g>
	<g>
		<path class="st6" d="M192.5,595.5v73.3h-15.5v-66.4h-32.3c-3.9,0-7.6,1.2-10.6,3.3c-1.4,1-2.6,2.1-3.8,3.4
			c-2.8,3.3-4.5,7.6-4.5,12.2v47.6h-15.5v-44.7c0-9.4,3.5-18,9.3-24.5c1.9-2.2,4-4.1,6.4-5.7c6-4.3,13.4-6.8,21.3-6.8h36.8
			C188.7,587.1,192.5,590.9,192.5,595.5z"/>
	</g>
	<g>
		<polygon class="st6" points="485,587.1 485,602.3 451.9,602.3 451.9,668.8 436.5,668.8 436.5,602.3 403.3,602.3 403.3,587.1 		"/>
	</g>
	<g>
		<path class="st6" d="M388.2,653.2v15.5h-53.4c-7.9,0-15.3-2.5-21.3-6.8c-2.4-1.6-4.5-3.5-6.4-5.7c-5.8-6.5-9.3-15.1-9.3-24.5
			v-44.7h15.5v47.6c0,4.7,1.7,9,4.5,12.3c1.1,1.3,2.4,2.4,3.8,3.4c3,2,6.7,3.2,10.6,3.2h32.3v-66.4h15.5v66.1H388.2z"/>
	</g>
	<g>
		<path class="st7" d="M222.9,610.7v34.5c0,4.5,3.6,8.1,8.1,8.1h51.6v15.5H230c-12.3,0-22.3-10-22.3-22.3v-37
			c0-12.3,10-22.3,22.3-22.3h52.6v15.5h-51.6C226.5,602.6,222.9,606.2,222.9,610.7z"/>
	</g>
</g>
</svg>
